<svg width="134" height="39" viewBox="0 0 134 39" fill="none" xmlns="http://www.w3.org/2000/svg">
<path d="M18.1159 24.1303L28.3103 38M111.667 22.1026L109.561 28.6972V30.9423H129.566V30.0161H110.613L112.248 24.0306L112.604 23.876L112.467 23.384L112.552 23.135L112.372 23.0391L106.286 1.06174H104.297L107.455 7.59456M111.667 22.1026L107.455 7.59456M111.667 22.1026C119.739 22.1026 135.252 19.201 132.725 7.59456H107.455M111.667 22.1026L109.329 12.0504L107.455 7.59456M105.35 2.31891L101.138 1M22.8453 14.0028C22.8453 21.1841 17.955 27.0057 11.9226 27.0057C5.89023 27.0057 1 21.1841 1 14.0028C1 6.82157 5.89023 1 11.9226 1C17.955 1 22.8453 6.82157 22.8453 14.0028ZM78 11.4542C78 17.228 74.0771 21.9085 69.2379 21.9085C64.3988 21.9085 60.4759 17.228 60.4759 11.4542C60.4759 5.68052 64.3988 1 69.2379 1C74.0771 1 78 5.68052 78 11.4542ZM83.1182 20.9661C81.0205 23.904 76.3268 25.9502 70.873 25.9502C64.8437 25.9502 59.7434 23.4495 58.0527 20.0077C55.5939 21.9162 54.1034 24.4172 54.1034 27.1551C54.1034 33.1446 61.236 38 70.0345 38C78.8329 38 85.9655 33.1446 85.9655 27.1551C85.9655 24.8545 84.9131 22.7212 83.1182 20.9661ZM110.613 37.999C111.776 38.0384 112.744 36.8898 112.775 35.4335C112.807 33.9773 111.89 32.7647 110.727 32.7253C109.565 32.6859 108.597 33.8345 108.565 35.2908C108.534 36.7471 109.451 37.9596 110.613 37.999ZM129.622 35.4335C129.59 36.8898 128.622 38.0384 127.46 37.999C126.297 37.9596 125.38 36.7471 125.412 35.2908C125.443 33.8345 126.411 32.6859 127.574 32.7253C128.736 32.7647 129.653 33.9773 129.622 35.4335Z" stroke="#56463E"/>
</svg>
