<svg width="190" height="43" viewBox="0 0 190 43" fill="none" xmlns="http://www.w3.org/2000/svg">
<path d="M50.09 3.43L57.79 0.349998V41.93H50.09V18.06H2.84V42H0.53V0.419997H2.84V15.75H50.09V3.43ZM121.391 32.9L123.911 36.47C121.344 37.6833 118.218 38.7567 114.531 39.69C110.844 40.6233 106.831 41.2767 102.491 41.65C98.151 42.0233 93.9277 42.0467 89.821 41.72C85.761 41.3467 81.911 40.39 78.271 38.85C74.6777 37.2633 71.8777 35.1167 69.871 32.41C68.7043 30.8233 67.8177 28.8633 67.211 26.53C66.651 24.1967 66.5343 21.6067 66.861 18.76C67.1877 15.9133 68.0977 13.3933 69.591 11.2C71.971 7.7 75.6577 4.99333 80.651 3.08C85.6444 1.16667 91.641 0.21 98.641 0.21C104.661 0.21 109.958 0.746667 114.531 1.82C119.104 2.84666 122.231 3.78 123.911 4.62L121.391 8.54C119.524 7.14 117.541 6.02 115.441 5.18C113.388 4.34 111.264 3.73333 109.071 3.36C106.924 2.94 104.218 2.61333 100.951 2.38C96.9377 2.1 93.0644 2.45 89.331 3.43C85.5977 4.36333 82.541 5.92667 80.161 8.12C76.1477 11.7133 74.3277 16.4733 74.701 22.4C74.8877 25.62 75.821 28.4433 77.501 30.87C79.181 33.2967 81.3043 35.1633 83.871 36.47C86.4844 37.73 89.4244 38.6167 92.691 39.13C96.0044 39.6433 99.341 39.7367 102.701 39.41C106.061 39.0367 109.374 38.29 112.641 37.17C115.954 36.05 118.871 34.6267 121.391 32.9ZM181.682 0.349998H189.382V41.93H181.682V4.69C173.328 5.06333 165.418 9.52 157.952 18.06C150.532 9.61333 142.692 5.15667 134.432 4.69V42H132.122V0.419997H134.432C136.905 0.793331 139.262 1.44666 141.502 2.38C143.788 3.26666 145.702 4.22333 147.242 5.25C148.828 6.23 150.368 7.44333 151.862 8.89C153.402 10.3367 154.568 11.5267 155.362 12.46C156.155 13.3933 157.018 14.49 157.952 15.75C158.885 14.5367 159.748 13.44 160.542 12.46C161.382 11.48 162.572 10.29 164.112 8.89C165.652 7.44333 167.215 6.20667 168.802 5.18C170.388 4.15333 172.302 3.19666 174.542 2.31C176.828 1.37667 179.208 0.723332 181.682 0.349998Z" fill="#92775D"/>
</svg>
